<svg id="Capa_1" enable-background="new 0 0 512 512" height="512" viewBox="0 0 512 512" width="512" xmlns="http://www.w3.org/2000/svg"><g><path d="m187.432 271c-29.538 0-53.568 24.03-53.568 53.568v133.863c0 29.538 24.03 53.568 53.568 53.568 29.538.001 53.568-24.029 53.568-53.567v-133.864c0-29.538-24.03-53.568-53.568-53.568z" fill="#ff4340"/><path d="m103.863 271h-51.86c-28.596 0-51.86 23.265-51.86 51.86 0 28.596 23.265 51.86 51.86 51.86s51.86-23.265 51.86-51.86z" fill="#ff4340"/><path d="m0 187.432c0 29.538 24.03 53.568 53.568 53.568h133.863c29.539 0 53.569-24.03 53.569-53.568s-24.03-53.568-53.568-53.568h-133.864c-29.538-.001-53.568 24.03-53.568 53.568z" fill="#36c6ff"/><path d="m189.14 103.863h51.86v-51.86c0-28.596-23.265-51.86-51.86-51.86-28.596 0-51.86 23.265-51.86 51.86s23.264 51.86 51.86 51.86z" fill="#36c6ff"/><path d="m324.568 241c29.538 0 53.568-24.03 53.568-53.568v-133.864c.001-29.538-24.03-53.568-53.568-53.568s-53.568 24.03-53.568 53.568v133.863c0 29.539 24.03 53.569 53.568 53.569z" fill="#0dc46e"/><path d="m408.137 241h51.86c28.596 0 51.86-23.265 51.86-51.86 0-28.596-23.265-51.86-51.86-51.86s-51.86 23.265-51.86 51.86z" fill="#0dc46e"/><g fill="#fdcb02"><path d="m512 324.568c0-29.538-24.03-53.568-53.568-53.568h-133.864c-29.538 0-53.568 24.03-53.568 53.568s24.03 53.568 53.568 53.568h133.863c29.539.001 53.569-24.03 53.569-53.568z"/><path d="m322.86 408.137h-51.86v51.86c0 28.596 23.265 51.86 51.86 51.86 28.596 0 51.86-23.265 51.86-51.86s-23.264-51.86-51.86-51.86z"/></g></g></svg>