<?xml version="1.0" encoding="iso-8859-1"?>
<!-- Generator: Adobe Illustrator 19.0.0, SVG Export Plug-In . SVG Version: 6.00 Build 0)  -->
<svg version="1.1" id="Capa_1" xmlns="http://www.w3.org/2000/svg" xmlns:xlink="http://www.w3.org/1999/xlink" x="0px" y="0px"
	 viewBox="0 0 512 512" style="enable-background:new 0 0 512 512;" xml:space="preserve">
<path style="fill:#00C3FF;" d="M407,512H105C47.103,512,0,464.897,0,407V105C0,47.103,47.103,0,105,0h302
	c57.897,0,105,47.103,105,105v302C512,464.897,464.897,512,407,512z"/>
<path style="fill:#00AAF0;" d="M407,0H256v512h151c57.897,0,105-47.103,105-105V105C512,47.103,464.897,0,407,0z"/>
<g>
	<path style="fill:#FFFFFF;" d="M157.649,394.515c-4.625,8.011-13.046,12.494-21.693,12.495c-4.239,0-8.531-1.077-12.458-3.344l0,0
		c-11.938-6.892-16.043-22.212-9.151-34.15l4.917-8.516h57.735L157.649,394.515z"/>
	<path style="fill:#FFFFFF;" d="M110.5,341c-13.785,0-25-11.215-25-25s11.215-25,25-25h49.178l67.454-116.834l-18.281-31.664
		c-6.892-11.938-2.788-27.258,9.15-34.151h0.001c11.938-6.892,27.258-2.786,34.15,9.151l3.848,6.665l3.848-6.664
		c6.895-11.939,22.215-16.043,34.15-9.151c5.783,3.339,9.92,8.73,11.648,15.18c1.729,6.45,0.841,13.188-2.498,18.971L217.413,291
		h54.079l28.868,50H110.5z"/>
</g>
<g>
	<path style="fill:#F2F2F2;" d="M401.5,341h-20.311l16.463,28.515c6.893,11.937,2.788,27.257-9.149,34.15
		c-3.853,2.224-8.129,3.361-12.461,3.361c-2.172,0-4.356-0.285-6.511-0.863c-6.451-1.729-11.842-5.866-15.181-11.65l-86.804-150.348
		l28.867-50L352.322,291H401.5c13.785,0,25,11.215,25,25S415.285,341,401.5,341z"/>
	<polygon style="fill:#F2F2F2;" points="256,291 256,341 300.36,341 271.493,291 	"/>
	<path style="fill:#F2F2F2;" d="M305.646,123.531c-1.729-6.45-5.865-11.842-11.648-15.18c-11.936-6.892-27.256-2.789-34.15,9.151
		L256,124.166l0,0v100l47.148-81.664C306.487,136.719,307.375,129.982,305.646,123.531z"/>
</g>
<g>
</g>
<g>
</g>
<g>
</g>
<g>
</g>
<g>
</g>
<g>
</g>
<g>
</g>
<g>
</g>
<g>
</g>
<g>
</g>
<g>
</g>
<g>
</g>
<g>
</g>
<g>
</g>
<g>
</g>
</svg>
